<svg width="58" height="58" viewBox="0 0 58 58" fill="none" xmlns="http://www.w3.org/2000/svg">
<g filter="url(#filter0_d_1291_224)">
<rect x="4" y="2" width="50" height="50" rx="25" fill="white"/>
<rect x="4.5" y="2.5" width="49" height="49" rx="24.5" stroke="black"/>
</g>
<path fill-rule="evenodd" clip-rule="evenodd" d="M25.5494 32.2245L19.0676 38.654C18.8397 38.8799 18.5312 39.0061 18.2102 39.0047C17.8892 39.0033 17.5819 38.8744 17.3559 38.6464C17.13 38.4184 17.0038 38.11 17.0052 37.789C17.0066 37.468 17.1355 37.1607 17.3635 36.9347L23.8453 30.5052C22.3583 28.5693 21.6648 26.1397 21.9056 23.7106C22.1465 21.2815 23.3037 19.0353 25.1418 17.4291C26.98 15.823 29.3609 14.9773 31.8004 15.0643C34.2399 15.1513 36.5546 16.1644 38.2737 17.8974C39.9927 19.6304 40.987 21.9533 41.0542 24.3934C41.1215 26.8335 40.2566 29.2075 38.6356 31.0326C37.0146 32.8577 34.7591 33.9967 32.3282 34.2178C29.8972 34.439 27.4732 33.7258 25.5494 32.2233L25.5494 32.2245ZM24.259 24.6295C24.2513 26.539 25.0024 28.3733 26.3471 29.7289C27.6919 31.0846 29.52 31.8505 31.4295 31.8583C33.3389 31.866 35.1733 31.1149 36.5289 29.7702C37.8846 28.4255 38.6505 26.5973 38.6582 24.6878C38.666 22.7784 37.9149 20.944 36.5701 19.5884C35.2254 18.2327 33.3972 17.4668 31.4878 17.4591C29.5783 17.4513 27.744 18.2024 26.3884 19.5472C25.0327 20.8919 24.2668 22.7201 24.259 24.6295Z" fill="black"/>
<defs>
<filter id="filter0_d_1291_224" x="0" y="0" width="58" height="58" filterUnits="userSpaceOnUse" color-interpolation-filters="sRGB">
<feFlood flood-opacity="0" result="BackgroundImageFix"/>
<feColorMatrix in="SourceAlpha" type="matrix" values="0 0 0 0 0 0 0 0 0 0 0 0 0 0 0 0 0 0 127 0" result="hardAlpha"/>
<feOffset dy="2"/>
<feGaussianBlur stdDeviation="2"/>
<feComposite in2="hardAlpha" operator="out"/>
<feColorMatrix type="matrix" values="0 0 0 0 0 0 0 0 0 0 0 0 0 0 0 0 0 0 0.1 0"/>
<feBlend mode="normal" in2="BackgroundImageFix" result="effect1_dropShadow_1291_224"/>
<feBlend mode="normal" in="SourceGraphic" in2="effect1_dropShadow_1291_224" result="shape"/>
</filter>
</defs>
</svg>
